<svg viewBox="0 0 400 400" xmlns="http://www.w3.org/2000/svg">
  <defs>
    <!-- Premium Emerald Gradients -->
    <linearGradient id="shieldGradient" x1="0%" y1="0%" x2="100%" y2="100%">
      <stop offset="0%" style="stop-color:#10b981;stop-opacity:1" />
      <stop offset="30%" style="stop-color:#059669;stop-opacity:1" />
      <stop offset="70%" style="stop-color:#047857;stop-opacity:1" />
      <stop offset="100%" style="stop-color:#064e3b;stop-opacity:1" />
    </linearGradient>
    
    <!-- Animated Shimmer Gradient -->
    <linearGradient id="shieldShimmer" x1="0%" y1="0%" x2="100%" y2="100%">
      <stop offset="0%" style="stop-color:#34d399;stop-opacity:1">
        <animate attributeName="stop-color" 
                 values="#34d399;#10b981;#34d399" 
                 dur="4s" 
                 repeatCount="indefinite"/>
      </stop>
      <stop offset="50%" style="stop-color:#10b981;stop-opacity:1">
        <animate attributeName="stop-color" 
                 values="#10b981;#059669;#10b981" 
                 dur="4s" 
                 repeatCount="indefinite"/>
      </stop>
      <stop offset="100%" style="stop-color:#047857;stop-opacity:1">
        <animate attributeName="stop-color" 
                 values="#047857;#064e3b;#047857" 
                 dur="4s" 
                 repeatCount="indefinite"/>
      </stop>
    </linearGradient>
    
    <!-- Light Emerald for Highlights -->
    <linearGradient id="lightEmerald" x1="0%" y1="0%" x2="0%" y2="100%">
      <stop offset="0%" style="stop-color:#34d399;stop-opacity:0.8" />
      <stop offset="100%" style="stop-color:#10b981;stop-opacity:0.4" />
    </linearGradient>
    
    <!-- Dark Emerald for Depth -->
    <linearGradient id="darkEmerald" x1="0%" y1="100%" x2="100%" y2="0%">
      <stop offset="0%" style="stop-color:#064e3b;stop-opacity:1" />
      <stop offset="100%" style="stop-color:#047857;stop-opacity:1" />
    </linearGradient>
    
    <!-- Highlight Gradient -->
    <linearGradient id="highlightGradient" x1="0%" y1="0%" x2="0%" y2="100%">
      <stop offset="0%" style="stop-color:#ffffff;stop-opacity:0.5" />
      <stop offset="50%" style="stop-color:#ffffff;stop-opacity:0.2" />
      <stop offset="100%" style="stop-color:#ffffff;stop-opacity:0" />
    </linearGradient>
    
    <!-- Premium Shadow Filter -->
    <filter id="shieldShadow" x="-50%" y="-50%" width="200%" height="200%">
      <feDropShadow dx="0" dy="6" stdDeviation="4" flood-color="#064e3b" flood-opacity="0.4"/>
      <feDropShadow dx="0" dy="2" stdDeviation="2" flood-color="#047857" flood-opacity="0.3"/>
    </filter>
    
    <!-- Glow Effect -->
    <filter id="subtleGlow" x="-50%" y="-50%" width="200%" height="200%">
      <feGaussianBlur stdDeviation="3" result="coloredBlur"/>
      <feMerge> 
        <feMergeNode in="coloredBlur"/>
        <feMergeNode in="SourceGraphic"/>
      </feMerge>
    </filter>
    
    <!-- Inner Shadow for Depth -->
    <filter id="innerShadow">
      <feGaussianBlur stdDeviation="3" result="blur"/>
      <feOffset in="blur" dx="0" dy="2" result="offset"/>
      <feComposite operator="out" in="offset" in2="SourceGraphic" result="inverse"/>
      <feFlood flood-color="#064e3b" flood-opacity="0.3" result="color"/>
      <feComposite operator="in" in="color" in2="inverse" result="shadow"/>
      <feComposite operator="over" in="shadow" in2="SourceGraphic"/>
    </filter>
    
    <!-- Gem Pattern Overlay -->
    <pattern id="gemPattern" patternUnits="userSpaceOnUse" width="30" height="30">
      <polygon points="15,5 25,15 15,25 5,15" 
               fill="none" 
               stroke="rgba(255,255,255,0.05)" 
               stroke-width="0.5"/>
    </pattern>
    
    <!-- Facet Pattern -->
    <pattern id="facetPattern" patternUnits="userSpaceOnUse" width="40" height="40">
      <path d="M0,20 L20,0 L40,20 L20,40 Z" 
            fill="none" 
            stroke="rgba(255,255,255,0.03)" 
            stroke-width="0.5"/>
    </pattern>
  </defs>
  
  <!-- Background Orbital Rings -->
  <g transform="translate(200,200)" opacity="0.2">
    <ellipse cx="0" cy="0" rx="150" ry="50" fill="none" stroke="url(#shieldGradient)" stroke-width="1">
      <animateTransform attributeName="transform" 
                        type="rotate" 
                        values="0;360" 
                        dur="50s" 
                        repeatCount="indefinite"/>
    </ellipse>
    <ellipse cx="0" cy="0" rx="150" ry="50" fill="none" stroke="url(#shieldGradient)" stroke-width="1" transform="rotate(60)">
      <animateTransform attributeName="transform" 
                        type="rotate" 
                        values="60;420" 
                        dur="50s" 
                        repeatCount="indefinite"/>
    </ellipse>
    <ellipse cx="0" cy="0" rx="150" ry="50" fill="none" stroke="url(#shieldGradient)" stroke-width="1" transform="rotate(120)">
      <animateTransform attributeName="transform" 
                        type="rotate" 
                        values="120;480" 
                        dur="50s" 
                        repeatCount="indefinite"/>
    </ellipse>
  </g>
  
  <!-- Main Shield Group -->
  <g transform="translate(200,180)" filter="url(#shieldShadow)">
    <!-- Shield Base Path -->
    <path d="M 0,-100 
             C -80,-100 -100,-80 -100,-40
             C -100,20 -80,60 -40,100
             L 0,140
             L 40,100
             C 80,60 100,20 100,-40
             C 100,-80 80,-100 0,-100 Z" 
          fill="url(#shieldGradient)" 
          stroke="#064e3b" 
          stroke-width="3"/>
    
    <!-- Shimmer Overlay -->
    <path d="M 0,-100 
             C -80,-100 -100,-80 -100,-40
             C -100,20 -80,60 -40,100
             L 0,140
             L 40,100
             C 80,60 100,20 100,-40
             C 100,-80 80,-100 0,-100 Z" 
          fill="url(#shieldShimmer)" 
          opacity="0.3"/>
    
    <!-- Inner Shield Border -->
    <path d="M 0,-85 
             C -70,-85 -85,-70 -85,-35
             C -85,15 -70,50 -35,85
             L 0,120
             L 35,85
             C 70,50 85,15 85,-35
             C 85,-70 70,-85 0,-85 Z" 
          fill="none" 
          stroke="url(#darkEmerald)" 
          stroke-width="2" 
          opacity="0.6"/>
    
    <!-- Faceted Sections for Depth -->
    <g opacity="0.8">
      <!-- Top Left Facet -->
      <path d="M 0,-85 L -70,-85 C -85,-70 -85,-35 -85,-35 L 0,0 Z" 
            fill="url(#lightEmerald)" 
            opacity="0.4"/>
      
      <!-- Top Right Facet -->
      <path d="M 0,-85 L 70,-85 C 85,-70 85,-35 85,-35 L 0,0 Z" 
            fill="url(#lightEmerald)" 
            opacity="0.3"/>
      
      <!-- Bottom Left Facet -->
      <path d="M 0,0 L -85,-35 C -85,15 -70,50 -35,85 L 0,120 Z" 
            fill="url(#darkEmerald)" 
            opacity="0.3"/>
      
      <!-- Bottom Right Facet -->
      <path d="M 0,0 L 85,-35 C 85,15 70,50 35,85 L 0,120 Z" 
            fill="url(#darkEmerald)" 
            opacity="0.4"/>
    </g>
    
    <!-- Central Lock Symbol -->
    <g transform="translate(0,-10)">
      <!-- Lock Body with Pulse -->
      <rect x="-20" y="0" width="40" height="35" rx="4" 
            fill="url(#darkEmerald)" 
            stroke="#064e3b" 
            stroke-width="2">
        <animate attributeName="opacity" 
                 values="1;0.85;1" 
                 dur="3s" 
                 repeatCount="indefinite"/>
      </rect>
      
      <!-- Lock Shackle -->
      <path d="M -14,-15 Q -14,-28 0,-28 Q 14,-28 14,-15 L 14,0 L 10,0 L 10,-15 Q 10,-24 0,-24 Q -10,-24 -10,-15 L -10,0 L -14,0 Z" 
            fill="url(#darkEmerald)" 
            stroke="#064e3b" 
            stroke-width="1.5"/>
      
      <!-- Keyhole with Glow -->
      <g filter="url(#subtleGlow)">
        <circle cx="0" cy="12" r="5" fill="#064e3b"/>
        <rect x="-2" y="12" width="4" height="10" fill="#064e3b"/>
      </g>
      
      <!-- Digital Circuit Lines -->
      <g stroke="#10b981" stroke-width="1" fill="none" opacity="0.6">
        <path d="M -15,18 L -25,18 L -25,8">
          <animate attributeName="opacity" 
                   values="0.6;1;0.6" 
                   dur="2s" 
                   repeatCount="indefinite"/>
        </path>
        <circle cx="-25" cy="8" r="2" fill="#10b981"/>
        
        <path d="M 15,18 L 25,18 L 25,8">
          <animate attributeName="opacity" 
                   values="0.6;1;0.6" 
                   dur="2s" 
                   begin="0.5s"
                   repeatCount="indefinite"/>
        </path>
        <circle cx="25" cy="8" r="2" fill="#10b981"/>
      </g>
    </g>
    
    <!-- Decorative Check Mark -->
    <g transform="translate(0,50)" opacity="0.8">
      <path d="M -25,0 L -10,15 L 25,-20" 
            fill="none" 
            stroke="url(#lightEmerald)" 
            stroke-width="4" 
            stroke-linecap="round" 
            stroke-linejoin="round">
        <animate attributeName="stroke-dasharray" 
                 values="0 100;100 0" 
                 dur="3s" 
                 repeatCount="indefinite"/>
      </path>
    </g>
    
    <!-- Highlight Overlay -->
    <path d="M 0,-100 
             C -80,-100 -100,-80 -100,-40
             L 0,-20
             L 100,-40
             C 100,-80 80,-100 0,-100 Z" 
          fill="url(#highlightGradient)" 
          opacity="0.5"/>
    
    <!-- Gem Pattern Overlay -->
    <path d="M 0,-100 
             C -80,-100 -100,-80 -100,-40
             C -100,20 -80,60 -40,100
             L 0,140
             L 40,100
             C 80,60 100,20 100,-40
             C 100,-80 80,-100 0,-100 Z" 
          fill="url(#gemPattern)" 
          opacity="0.3"/>
  </g>
  
  <!-- Sparkle Effects -->
  <g opacity="0.9">
    <circle cx="120" cy="100" r="1.5" fill="#ffffff">
      <animate attributeName="opacity" 
               values="0;1;0" 
               dur="2.5s" 
               repeatCount="indefinite"/>
    </circle>
    
    <circle cx="280" cy="120" r="1.5" fill="#ffffff">
      <animate attributeName="opacity" 
               values="0;1;0" 
               dur="3s" 
               begin="1s"
               repeatCount="indefinite"/>
    </circle>
    
    <circle cx="150" cy="250" r="1.5" fill="#ffffff">
      <animate attributeName="opacity" 
               values="0;1;0" 
               dur="2.8s" 
               begin="0.5s"
               repeatCount="indefinite"/>
    </circle>
    
    <circle cx="250" cy="280" r="1.5" fill="#ffffff">
      <animate attributeName="opacity" 
               values="0;1;0" 
               dur="3.2s" 
               begin="1.5s"
               repeatCount="indefinite"/>
    </circle>
  </g>
  
  <!-- Outer Glow Ring -->
  <g transform="translate(200,180)" filter="url(#subtleGlow)" opacity="0.4">
    <path d="M 0,-100 
             C -80,-100 -100,-80 -100,-40
             C -100,20 -80,60 -40,100
             L 0,140
             L 40,100
             C 80,60 100,20 100,-40
             C 100,-80 80,-100 0,-100 Z" 
          fill="none" 
          stroke="#10b981" 
          stroke-width="1">
      <animate attributeName="opacity" 
               values="0.4;0.7;0.4" 
               dur="4s" 
               repeatCount="indefinite"/>
    </path>
  </g>
</svg>
